<svg viewBox="0 0 200 191.101" xmlns="http://www.w3.org/2000/svg">
<path fill="rgb(74,189,172)" d="M189.554,82.453L190.333,84.023L191.095,85.619L191.839,87.244L192.562,88.896L193.264,90.575L193.941,92.282L194.593,94.015L195.218,95.775L195.813,97.560L196.376,99.371L196.906,101.206L197.401,103.065L197.859,104.947L198.277,106.849L198.655,108.773L198.990,110.715L199.279,112.675L199.523,114.651L199.718,116.641L199.864,118.644L199.958,120.659L200.000,122.682L199.987,124.713L199.919,126.749L199.794,128.788L199.611,130.827L199.370,132.866L199.069,134.901L198.707,136.929L198.284,138.950L197.800,140.959L197.254,142.956L196.646,144.937L195.976,146.900L195.243,148.842L194.449,150.762L193.593,152.657L192.676,154.524L191.698,156.361L190.661,158.167L189.565,159.938L188.412,161.673L187.201,163.369L185.936,165.025L184.616,166.640L183.244,168.210L181.821,169.734L180.348,171.212L178.829,172.641L177.263,174.020L175.655,175.348L174.004,176.625L172.314,177.848L170.587,179.017L168.825,180.132L167.029,181.191L165.203,182.196L163.348,183.144L161.467,184.037L159.562,184.874L157.635,185.655L155.689,186.381L153.725,187.051L151.746,187.667L149.754,188.229L147.750,188.737L145.738,189.193L143.718,189.597L141.694,189.950L139.666,190.254L137.636,190.509L135.607,190.717L133.579,190.879L131.554,190.996L129.533,191.069L127.519,191.101L125.511,191.092L123.511,191.044L121.521,190.959L119.541,190.837L117.571,190.681L115.613,190.491L113.668,190.270L111.735,190.019L109.816,189.739L107.910,189.432L106.019,189.098L104.141,188.740L102.278,188.358L100.430,187.955L98.595,187.530L96.776,187.085L94.970,186.622L93.179,186.140L91.402,185.642L89.638,185.128L87.888,184.598L86.151,184.053L84.426,183.495L82.714,182.923L81.014,182.338L79.325,181.740L77.648,181.130L75.982,180.508L74.326,179.875L72.680,179.229L71.043,178.572L69.416,177.903L67.798,177.222L66.189,176.529L64.588,175.824L62.995,175.106L61.411,174.376L59.834,173.632L58.265,172.875L56.704,172.104L55.151,171.318L53.605,170.517L52.068,169.700L50.539,168.867L49.018,168.017L47.505,167.150L46.002,166.265L44.508,165.361L43.023,164.438L41.549,163.495L40.086,162.532L38.635,161.547L37.195,160.541L35.769,159.513L34.356,158.462L32.958,157.388L31.575,156.291L30.208,155.170L28.859,154.024L27.528,152.854L26.216,151.659L24.924,150.439L23.653,149.194L22.405,147.923L21.181,146.628L19.981,145.307L18.807,143.961L17.659,142.590L16.539,141.194L15.449,139.773L14.388,138.329L13.359,136.861L12.362,135.370L11.397,133.856L10.467,132.320L9.572,130.763L8.714,129.185L7.891,127.587L7.107,125.970L6.361,124.335L5.654,122.683L4.987,121.014L4.360,119.331L3.775,117.633L3.230,115.922L2.727,114.199L2.267,112.465L1.849,110.721L1.473,108.969L1.140,107.209L0.850,105.443L0.602,103.672L0.397,101.898L0.235,100.120L0.115,98.342L0.036,96.563L0.000,94.784L0.005,93.008L0.050,91.235L0.136,89.466L0.262,87.703L0.427,85.945L0.630,84.195L0.871,82.453L1.149,80.720L1.463,78.997L1.812,77.285L2.196,75.584L2.614,73.896L3.065,72.220L3.547,70.558L4.061,68.910L4.605,67.276L5.178,65.658L5.780,64.055L6.408,62.468L7.064,60.898L7.745,59.344L8.450,57.808L9.180,56.288L9.933,54.786L10.708,53.301L11.504,51.834L12.322,50.385L13.159,48.953L14.015,47.540L14.891,46.144L15.784,44.767L16.695,43.407L17.622,42.065L18.566,40.742L19.526,39.436L20.502,38.149L21.492,36.879L22.497,35.627L23.517,34.393L24.550,33.177L25.597,31.978L26.658,30.798L27.732,29.636L28.819,28.491L29.919,27.365L31.032,26.256L32.158,25.166L33.296,24.095L34.446,23.042L35.609,22.007L36.784,20.992L37.972,19.995L39.171,19.018L40.383,18.061L41.606,17.124L42.842,16.206L44.090,15.310L45.349,14.434L46.620,13.580L47.903,12.748L49.197,11.937L50.502,11.150L51.819,10.385L53.147,9.644L54.485,8.927L55.834,8.234L57.193,7.566L58.563,6.923L59.942,6.307L61.330,5.716L62.727,5.152L64.133,4.616L65.548,4.107L66.970,3.626L68.399,3.174L69.835,2.751L71.277,2.356L72.724,1.992L74.177,1.657L75.635,1.352L77.096,1.078L78.560,0.835L80.027,0.622L81.495,0.440L82.965,0.290L84.435,0.170L85.905,0.082L87.374,0.026L88.841,-0.000L90.306,0.005L91.768,0.042L93.225,0.109L94.678,0.208L96.126,0.336L97.568,0.495L99.002,0.683L100.430,0.902L101.849,1.149L103.259,1.424L104.660,1.728L106.051,2.060L107.432,2.419L108.801,2.805L110.159,3.216L111.504,3.653L112.837,4.115L114.157,4.601L115.464,5.110L116.756,5.642L118.035,6.196L119.299,6.772L120.549,7.368L121.783,7.984L123.003,8.619L124.207,9.272L125.397,9.944L126.571,10.632L127.729,11.336L128.872,12.055L130.000,12.789L131.113,13.538L132.210,14.299L133.293,15.073L134.361,15.859L135.414,16.657L136.453,17.464L137.479,18.282L138.490,19.110L139.488,19.946L140.474,20.791L141.447,21.643L142.407,22.503L143.356,23.370L144.294,24.243L145.222,25.122L146.139,26.007L147.046,26.898L147.944,27.794L148.834,28.695L149.716,29.600L150.590,30.510L151.458,31.425L152.319,32.344L153.175,33.268L154.025,34.195L154.871,35.128L155.714,36.064L156.552,37.006L157.389,37.952L158.222,38.903L159.055,39.860L159.886,40.822L160.716,41.789L161.547,42.763L162.378,43.744L163.209,44.732L164.042,45.727L164.876,46.730L165.712,47.742L166.551,48.763L167.391,49.794L168.235,50.835L169.081,51.888L169.930,52.952L170.782,54.029L171.637,55.119L172.495,56.223L173.356,57.343L174.219,58.477L175.085,59.629L175.953,60.797L176.822,61.984L177.693,63.189L178.564,64.415L179.435,65.660L180.305,66.927L181.174,68.216L182.041,69.527L182.904,70.862L183.763,72.221L184.617,73.605L185.463,75.014L186.303,76.448L187.133,77.909L187.952,79.397L188.760,80.911Z" />
</svg>